<?xml version="1.0" encoding="utf-8" standalone="no"?>
<!DOCTYPE svg PUBLIC "-//W3C//DTD SVG 1.1//EN"
  "http://www.w3.org/Graphics/SVG/1.1/DTD/svg11.dtd">
<svg xmlns:xlink="http://www.w3.org/1999/xlink" width="424.8pt" height="288pt" viewBox="0 0 424.8 288" xmlns="http://www.w3.org/2000/svg" version="1.1">
 <metadata>
  <rdf:RDF xmlns:dc="http://purl.org/dc/elements/1.1/" xmlns:cc="http://creativecommons.org/ns#" xmlns:rdf="http://www.w3.org/1999/02/22-rdf-syntax-ns#">
   <cc:Work>
    <dc:type rdf:resource="http://purl.org/dc/dcmitype/StillImage"/>
    <dc:date>2026-10-05T20:42:02.911114</dc:date>
    <dc:format>image/svg+xml</dc:format>
    <dc:creator>
     <cc:Agent>
      <dc:title>Matplotlib v3.10.0, https://matplotlib.org/</dc:title>
     </cc:Agent>
    </dc:creator>
   </cc:Work>
  </rdf:RDF>
 </metadata>
 <defs>
  <style type="text/css">*{stroke-linejoin: round; stroke-linecap: butt}</style>
 </defs>
 <g id="figure_1">
  <g id="patch_1">
   <path d="M 0 288 
L 424.8 288 
L 424.8 0 
L 0 0 
z
" style="fill: #ffffff"/>
  </g>
  <g id="axes_1">
   <g id="patch_2">
    <path d="M 76.464 230.4 
L 420.552 230.4 
L 420.552 8.64 
L 76.464 8.64 
z
" style="fill: #ffffff"/>
   </g>
   <g id="line2d_1">
    <path d="M 133.812 230.4 
L 133.812 8.64 
" clip-path="url(#p4bdc622689)" style="fill: none; stroke-dasharray: 4,3; stroke-dashoffset: 0; stroke: #aeb7c4"/>
   </g>
   <g id="FillBetweenPolyCollection_1">
    <defs>
     <path id="m830cdadcc0" d="M 321.038807 -202.999245 
L 205.992339 -202.999245 
L 205.992339 -230.196226 
L 321.038807 -230.196226 
L 321.038807 -230.196226 
L 321.038807 -202.999245 
z
"/>
    </defs>
    <g clip-path="url(#p4bdc622689)">
     <use xlink:href="#m830cdadcc0" x="0" y="288" style="fill: #dce5f7; fill-opacity: 0.9"/>
    </g>
   </g>
   <g id="FillBetweenPolyCollection_2">
    <defs>
     <path id="m674535278b" d="M 304.311269 -98.395472 
L 194.083558 -98.395472 
L 194.083558 -125.592453 
L 304.311269 -125.592453 
L 304.311269 -125.592453 
L 304.311269 -98.395472 
z
"/>
    </defs>
    <g clip-path="url(#p4bdc622689)">
     <use xlink:href="#m674535278b" x="0" y="288" style="fill: #dce5f7; fill-opacity: 0.9"/>
    </g>
   </g>
   <g id="matplotlib.axis_1">
    <g id="xtick_1">
     <g id="line2d_2">
      <defs>
       <path id="mf0a1098265" d="M 0 0 
L 0 4 
" style="stroke: #13243a; stroke-width: 0.8"/>
      </defs>
      <g>
       <use xlink:href="#mf0a1098265" x="133.812" y="230.4" style="fill: #13243a; stroke: #13243a; stroke-width: 0.8"/>
      </g>
     </g>
     <g id="text_1">
      <text style="font-size: 9px; font-family: 'Arial', 'Helvetica', 'DejaVu Sans', sans-serif; text-anchor: middle; fill: #13243a" x="133.812" y="244.342031" transform="rotate(-0 133.812 244.342031)">0.0</text>
     </g>
    </g>
    <g id="xtick_2">
     <g id="line2d_3">
      <g>
       <use xlink:href="#mf0a1098265" x="191.16" y="230.4" style="fill: #13243a; stroke: #13243a; stroke-width: 0.8"/>
      </g>
     </g>
     <g id="text_2">
      <text style="font-size: 9px; font-family: 'Arial', 'Helvetica', 'DejaVu Sans', sans-serif; text-anchor: middle; fill: #13243a" x="191.16" y="244.342031" transform="rotate(-0 191.16 244.342031)">0.2</text>
     </g>
    </g>
    <g id="xtick_3">
     <g id="line2d_4">
      <g>
       <use xlink:href="#mf0a1098265" x="248.508" y="230.4" style="fill: #13243a; stroke: #13243a; stroke-width: 0.8"/>
      </g>
     </g>
     <g id="text_3">
      <text style="font-size: 9px; font-family: 'Arial', 'Helvetica', 'DejaVu Sans', sans-serif; text-anchor: middle; fill: #13243a" x="248.508" y="244.342031" transform="rotate(-0 248.508 244.342031)">0.4</text>
     </g>
    </g>
    <g id="xtick_4">
     <g id="line2d_5">
      <g>
       <use xlink:href="#mf0a1098265" x="305.856" y="230.4" style="fill: #13243a; stroke: #13243a; stroke-width: 0.8"/>
      </g>
     </g>
     <g id="text_4">
      <text style="font-size: 9px; font-family: 'Arial', 'Helvetica', 'DejaVu Sans', sans-serif; text-anchor: middle; fill: #13243a" x="305.856" y="244.342031" transform="rotate(-0 305.856 244.342031)">0.6</text>
     </g>
    </g>
    <g id="xtick_5">
     <g id="line2d_6">
      <g>
       <use xlink:href="#mf0a1098265" x="363.204" y="230.4" style="fill: #13243a; stroke: #13243a; stroke-width: 0.8"/>
      </g>
     </g>
     <g id="text_5">
      <text style="font-size: 9px; font-family: 'Arial', 'Helvetica', 'DejaVu Sans', sans-serif; text-anchor: middle; fill: #13243a" x="363.204" y="244.342031" transform="rotate(-0 363.204 244.342031)">0.8</text>
     </g>
    </g>
    <g id="xtick_6">
     <g id="line2d_7">
      <g>
       <use xlink:href="#mf0a1098265" x="420.552" y="230.4" style="fill: #13243a; stroke: #13243a; stroke-width: 0.8"/>
      </g>
     </g>
     <g id="text_6">
      <text style="font-size: 9px; font-family: 'Arial', 'Helvetica', 'DejaVu Sans', sans-serif; text-anchor: middle; fill: #13243a" x="420.552" y="244.342031" transform="rotate(-0 420.552 244.342031)">1.0</text>
     </g>
    </g>
    <g id="text_7">
     <text style="font-size: 10px; font-family: 'Arial', 'Helvetica', 'DejaVu Sans', sans-serif; text-anchor: middle; fill: #13243a" x="248.508" y="257.410469" transform="rotate(-0 248.508 257.410469)">Preference (|concordant ρ| − |discordant ρ|)</text>
    </g>
   </g>
   <g id="matplotlib.axis_2">
    <g id="ytick_1">
     <g id="line2d_8">
      <defs>
       <path id="mc752f8cfe4" d="M 0 0 
L -4 0 
" style="stroke: #13243a; stroke-width: 0.8"/>
      </defs>
      <g>
       <use xlink:href="#mc752f8cfe4" x="76.464" y="71.402264" style="fill: #13243a; stroke: #13243a; stroke-width: 0.8"/>
      </g>
     </g>
     <g id="text_8">
      <text style="font-weight: 600; font-size: 9px; font-family: 'Arial', 'Helvetica', 'DejaVu Sans', sans-serif; text-anchor: end; fill: #13243a" x="68.964" y="74.62328" transform="rotate(-0 68.964 74.62328)">Pooled</text>
     </g>
    </g>
    <g id="ytick_2">
     <g id="line2d_9">
      <g>
       <use xlink:href="#mc752f8cfe4" x="76.464" y="176.006038" style="fill: #13243a; stroke: #13243a; stroke-width: 0.8"/>
      </g>
     </g>
     <g id="text_9">
      <text style="font-weight: 600; font-size: 9px; font-family: 'Arial', 'Helvetica', 'DejaVu Sans', sans-serif; text-anchor: end; fill: #13243a" x="68.964" y="179.227053" transform="rotate(-0 68.964 179.227053)">Pan-etiology</text>
     </g>
    </g>
   </g>
   <g id="LineCollection_1">
    <path d="M 205.992339 71.402264 
L 321.038807 71.402264 
" clip-path="url(#p4bdc622689)" style="fill: none; stroke: #3766b2; stroke-width: 1.5"/>
   </g>
   <g id="LineCollection_2">
    <path d="M 205.992339 77.155472 
L 205.992339 65.649057 
" clip-path="url(#p4bdc622689)" style="fill: none; stroke: #3766b2; stroke-width: 1.25"/>
    <path d="M 321.038807 77.155472 
L 321.038807 65.649057 
" clip-path="url(#p4bdc622689)" style="fill: none; stroke: #3766b2; stroke-width: 1.25"/>
   </g>
   <g id="LineCollection_3">
    <path d="M 194.083558 176.006038 
L 304.311269 176.006038 
" clip-path="url(#p4bdc622689)" style="fill: none; stroke: #3766b2; stroke-width: 1.5"/>
   </g>
   <g id="LineCollection_4">
    <path d="M 194.083558 181.759245 
L 194.083558 170.25283 
" clip-path="url(#p4bdc622689)" style="fill: none; stroke: #3766b2; stroke-width: 1.25"/>
    <path d="M 304.311269 181.759245 
L 304.311269 170.25283 
" clip-path="url(#p4bdc622689)" style="fill: none; stroke: #3766b2; stroke-width: 1.25"/>
   </g>
   <g id="patch_3">
    <path d="M 76.464 230.4 
L 76.464 8.64 
" style="fill: none; stroke: #657184; stroke-width: 0.85; stroke-linejoin: miter; stroke-linecap: square"/>
   </g>
   <g id="patch_4">
    <path d="M 420.552 230.4 
L 420.552 8.64 
" style="fill: none; stroke: #657184; stroke-width: 0.85; stroke-linejoin: miter; stroke-linecap: square"/>
   </g>
   <g id="patch_5">
    <path d="M 76.464 230.4 
L 420.552 230.4 
" style="fill: none; stroke: #657184; stroke-width: 0.85; stroke-linejoin: miter; stroke-linecap: square"/>
   </g>
   <g id="patch_6">
    <path d="M 76.464 8.64 
L 420.552 8.64 
" style="fill: none; stroke: #657184; stroke-width: 0.85; stroke-linejoin: miter; stroke-linecap: square"/>
   </g>
   <g id="PathCollection_1">
    <defs>
     <path id="maf6559826d" d="M 0 3.605551 
C 0.956203 3.605551 1.873372 3.225648 2.54951 2.54951 
C 3.225648 1.873372 3.605551 0.956203 3.605551 0 
C 3.605551 -0.956203 3.225648 -1.873372 2.54951 -2.54951 
C 1.873372 -3.225648 0.956203 -3.605551 0 -3.605551 
C -0.956203 -3.605551 -1.873372 -3.225648 -2.54951 -2.54951 
C -3.225648 -1.873372 -3.605551 -0.956203 -3.605551 0 
C -3.605551 0.956203 -3.225648 1.873372 -2.54951 2.54951 
C -1.873372 3.225648 -0.956203 3.605551 0 3.605551 
z
" style="stroke: #3766b2"/>
    </defs>
    <g clip-path="url(#p4bdc622689)">
     <use xlink:href="#maf6559826d" x="266.326381" y="71.402264" style="fill: #3766b2; stroke: #3766b2"/>
    </g>
   </g>
   <g id="text_10">
    <text style="font-weight: 600; font-size: 8.5px; font-family: 'Arial', 'Helvetica', 'DejaVu Sans', sans-serif; fill: #234a91" transform="translate(258.055483 51.264643)">0.46</text>
    <text style="font-weight: 600; font-size: 8.5px; font-family: 'Arial', 'Helvetica', 'DejaVu Sans', sans-serif; fill: #234a91" transform="translate(244.592944 60.273315)">[0.25, 0.65]</text>
   </g>
   <g id="PathCollection_2">
    <g clip-path="url(#p4bdc622689)">
     <use xlink:href="#maf6559826d" x="249.886135" y="176.006038" style="fill: #3766b2; stroke: #3766b2"/>
    </g>
   </g>
   <g id="text_11">
    <text style="font-weight: 600; font-size: 8.5px; font-family: 'Arial', 'Helvetica', 'DejaVu Sans', sans-serif; fill: #234a91" transform="translate(241.615236 155.868417)">0.40</text>
    <text style="font-weight: 600; font-size: 8.5px; font-family: 'Arial', 'Helvetica', 'DejaVu Sans', sans-serif; fill: #234a91" transform="translate(228.152697 164.877089)">[0.21, 0.59]</text>
   </g>
   <g id="legend_1">
    <g id="patch_7">
     <path d="M 124.266555 30.993119 
L 372.749445 30.993119 
Q 374.449445 30.993119 374.449445 29.293119 
L 374.449445 17.9164 
Q 374.449445 16.2164 372.749445 16.2164 
L 124.266555 16.2164 
Q 122.566555 16.2164 122.566555 17.9164 
L 122.566555 29.293119 
Q 122.566555 30.993119 124.266555 30.993119 
z
" style="fill: #ffffff; opacity: 0.98; stroke: #d0d7e1; stroke-linejoin: miter"/>
    </g>
    <g id="line2d_10">
     <path d="M 125.966555 22.829134 
L 131.916555 22.829134 
L 137.866555 22.829134 
" style="fill: none"/>
     <defs>
      <path id="mb32659975d" d="M 0 3.4 
C 0.901691 3.4 1.766572 3.041755 2.404163 2.404163 
C 3.041755 1.766572 3.4 0.901691 3.4 0 
C 3.4 -0.901691 3.041755 -1.766572 2.404163 -2.404163 
C 1.766572 -3.041755 0.901691 -3.4 0 -3.4 
C -0.901691 -3.4 -1.766572 -3.041755 -2.404163 -2.404163 
C -3.041755 -1.766572 -3.4 -0.901691 -3.4 0 
C -3.4 0.901691 -3.041755 1.766572 -2.404163 2.404163 
C -1.766572 3.041755 -0.901691 3.4 0 3.4 
z
" style="stroke: #3766b2"/>
     </defs>
     <g>
      <use xlink:href="#mb32659975d" x="131.916555" y="22.829134" style="fill: #3766b2; stroke: #3766b2"/>
     </g>
    </g>
    <g id="text_12">
     <text style="font-size: 8.5px; font-family: 'Arial', 'Helvetica', 'DejaVu Sans', sans-serif; text-anchor: start; fill: #13243a" x="144.666555" y="25.804134" transform="rotate(-0 144.666555 25.804134)">Preference estimate</text>
    </g>
    <g id="patch_8">
     <path d="M 235.175617 25.804134 
L 247.075617 25.804134 
L 247.075617 19.854134 
L 235.175617 19.854134 
z
" style="fill: #dce5f7"/>
    </g>
    <g id="text_13">
     <text style="font-size: 8.5px; font-family: 'Arial', 'Helvetica', 'DejaVu Sans', sans-serif; text-anchor: start; fill: #13243a" x="253.875617" y="25.804134" transform="rotate(-0 253.875617 25.804134)">95% paired ligand-bootstrap CI</text>
    </g>
   </g>
  </g>
 </g>
 <defs>
  <clipPath id="p4bdc622689">
   <rect x="76.464" y="8.64" width="344.088" height="221.76"/>
  </clipPath>
 </defs>
</svg>
